# xmcd
#
# Track frame offsets: 
#        150
#        19404
#        35557
#        54494
#        73498
#        88882
#        104933
#        120055
#        137862
#        155073
#        174495
#        189456
#
# Disc length: 2686 seconds
#
# Revision: 3
# Processed by: cddbd v1.5.2PL0 Copyright (c) Steve Scherf et al.
# Submitted via: ExactAudioCopyFreeDBPlugin 1.0
#
DISCID=b30a7c0c
DTITLE=Paul Millns - calling all clowns
DYEAR=2010
DGENRE=blues
TTITLE0=That Perfume
TTITLE1=Calling all Clowns
TTITLE2=Weather of the Heart
TTITLE3=Falling for You
TTITLE4=Put on a Sunny Hat
TTITLE5=The Moon Might Know
TTITLE6=Blame it on You
TTITLE7=London in the Rain
TTITLE8=The Way of the World
TTITLE9=Homing in on You
TTITLE10=Slippery Sam
TTITLE11=My Funny Valentine
EXTD=
EXTT0=
EXTT1=
EXTT2=
EXTT3=
EXTT4=
EXTT5=
EXTT6=
EXTT7=
EXTT8=
EXTT9=
EXTT10=
EXTT11=
PLAYORDER=
